<?xml version="1.0" standalone="no"?>
<!DOCTYPE svg PUBLIC "-//W3C//DTD SVG 20010904//EN"
 "http://www.w3.org/TR/2001/REC-SVG-20010904/DTD/svg10.dtd">
<svg version="1.0" xmlns="http://www.w3.org/2000/svg"
 width="700.000000pt" height="700.000000pt" viewBox="0 0 700.000000 700.000000"
 preserveAspectRatio="xMidYMid meet">
<metadata>
Created by potrace 1.11, written by Peter Selinger 2001-2013
</metadata>
<g transform="translate(0.000000,700.000000) scale(0.100000,-0.100000)"
fill="#000000" stroke="none">
<path d="M3270 6429 c-87 -8 -196 -20 -213 -23 -29 -6 -84 -16 -107 -20 -60
-9 -273 -68 -367 -100 -394 -138 -777 -378 -1057 -662 -69 -70 -144 -152 -186
-204 -25 -30 -47 -57 -50 -60 -20 -18 -168 -238 -212 -313 -178 -309 -281
-608 -353 -1022 -13 -76 -20 -216 -19 -395 0 -269 15 -404 71 -640 109 -468
361 -930 694 -1277 l50 -51 -411 -412 -411 -411 1528 4 c840 2 1544 6 1563 10
19 3 58 9 85 12 28 3 73 10 100 15 28 5 61 11 75 14 14 2 72 16 129 30 370 94
694 248 996 474 415 311 739 734 928 1212 62 159 130 390 144 490 2 19 6 42 9
50 3 8 8 38 11 65 3 28 8 66 12 85 11 53 15 146 15 345 1 322 -33 547 -124
838 -260 823 -895 1488 -1706 1785 -191 70 -415 124 -629 152 -104 14 -455 20
-565 9z"/>
</g>
</svg>
